<svg xmlns="http://www.w3.org/2000/svg" viewBox="0 0 368.09 162.91"><defs><style>.cls-1{opacity:0.75;}.cls-2,.cls-6{font-size:30.61px;font-family:Impact;letter-spacing:0.15em;}.cls-2,.cls-5,.cls-6,.cls-8{fill:#1d1d1b;}.cls-2,.cls-4,.cls-5{stroke:#fff;}.cls-3{letter-spacing:0.21em;}.cls-4,.cls-7{fill:none;stroke-width:2px;}.cls-4,.cls-5,.cls-7,.cls-8{stroke-miterlimit:10;}.cls-7,.cls-8{stroke:#1d1d1b;}</style></defs><g id="Layer_2" data-name="Layer 2"><g id="Layer_1-2" data-name="Layer 1"><g class="cls-1"><text class="cls-2" transform="translate(234.8 152.29)">A<tspan class="cls-3" x="20.11" y="0">YDEEZ</tspan></text><path class="cls-4" d="M92.56,115.8S115.52,1,138.48,1s56.13,150.52,56.13,150.52"/><path class="cls-4" d="M.71,72.43,244.16,70.2A13.89,13.89,0,0,1,254,94L197.9,148.59a7.66,7.66,0,0,0,5.34,13.14H368.09"/><circle class="cls-5" cx="212.46" cy="97.95" r="14.03"/></g><text class="cls-6" transform="translate(234.1 152.43)">A<tspan class="cls-3" x="20.11" y="0">YDEEZ</tspan></text><path class="cls-7" d="M91.85,115.94s23-114.8,45.92-114.8S193.9,151.66,193.9,151.66"/><path class="cls-7" d="M0,72.57l243.44-2.23a13.89,13.89,0,0,1,9.82,23.84L197.2,148.73a7.65,7.65,0,0,0,5.34,13.13H367.38"/><circle class="cls-8" cx="211.76" cy="98.08" r="14.03"/></g></g></svg>